<?xml version="1.0" encoding="UTF-8" standalone="no"?>
<svg
  version="1.1"
  id="svg1"
  viewBox="0 0 1920 1776"
  preserveAspectRatio="none"
  xmlns="http://www.w3.org/2000/svg"
  xmlns:svg="http://www.w3.org/2000/svg">
  <defs id="defs1" />
  <path
    id="path4"
    style="display:inline;fill:#0c1641;fill-opacity:1"
    d="m 1726.3594,1402.9043 c -46.8118,0.5893 -93.4208,6.0932 -130.7344,18.1602 -321.5372,103.9822 -349.3889,64.9727 -627.25586,8.7519 -90.282,-18.2667 -386.26593,-16.4015 -478.41992,103.1426 -116.39495,-24.5277 -208.2251,-68.2691 -323.51953,-68.6699 -49.72544,-0.1729 -103.86059,7.7536 -166.30078375,28.8261 L 0.0859375,1601.3203 c 0.16160517,-0.026 308.5803025,-49.2194 489.8769525,-7.75 l 3.28906,182.4434 1427.91215,-0.4649 c 0,0 -0.9227,-149.2893 -1.1289,-342.248 -37.0696,-18.7056 -115.6563,-31.3787 -193.6758,-30.3965 z" />
  <path
    style="display:inline;fill:#0c1641;fill-opacity:1"
    d="m 488.89244,1534.2318 c 90.9962,-120.8387 388.86563,-122.7476 479.47583,-104.4145 277.86723,56.2208 305.72013,95.2305 627.25763,-8.7519 99.5031,-32.1785 265.0975,-17.6943 324.4088,12.2346 0.2062,192.9589 1.1287,342.2487 1.1287,342.2487 l -1427.91128,0.4641 z"
    id="path1-3" />
  <path
    id="path1-3-1"
    style="display:inline;fill:#0e1a4f;fill-opacity:1;stroke-width:1.15684"
    d="m 166.42969,1464.2891 c -49.72549,-0.1729 -103.860528,7.7535 -166.30078375,28.8261 L 0.0859375,1601.3203 c 0.16592526,-0.027 325.3488025,-51.925 504.1914025,-4.2656 142.85989,38.0703 468.31476,25.4787 626.14846,-34.877 40.537,-15.5013 93.2814,-29.654 153.9922,-40.375 -81.2935,-29.1998 -231.9626,-59.5026 -403.2598,-9.9668 -366.59965,106.0136 -499.2514,-46.7976 -714.72851,-47.5468 z" />
  <path
    style="display:inline;fill:#101e5a;fill-opacity:1;stroke-width:1.01663"
    d="m 0.03177085,1598.6424 c 0,0 309.29096915,-57.4433 488.17938915,-9.141 142.86003,38.5741 484.3815,30.6273 642.21534,-30.527 157.8338,-61.1541 498.6652,-102.5355 788.2425,7.783 0.2062,199.4287 0.326,209.1698 0.326,209.1698 l -1920.0335017,0.1942 z"
    id="path2" />
</svg>